<svg xmlns="http://www.w3.org/2000/svg" preserveAspectRatio="xMidYMid meet" width="200" viewBox="0 0 1160.68 573.14"><path d="M54.77 427.36L520.09 45l326 319.54h-41.65l-261.2-258.4L165 427.36H54.77z"/><path d="M273.13 365l250.29-213.4 224.15 213h-41.68L554 219.19 379.63 364.54l-106.5.44z"/><path d="M422.25 365.34l105.59-86.14 101.47 85.34-37.82.44-36.79-30.2L522.81 365l-100.56.36zM45 445.74h53v18.78h-2.27c-2.06-9.72-4.58-15.6-20.65-15.6-5 0-6.73.38-6.73 4.39V475c11.58.18 13-6.45 14.29-13.92H85v31.58h-2.35c-1-7.66-2.52-14.48-14.29-14.48v21.77c0 6.17 3.73 6.36 10.28 6.64v2.34H45v-2.34c5.33-.56 8.22-.84 8.22-6.64v-45.24c0-6.17-3.83-6.36-8.22-6.64v-2.34zM124 464.71c12.24 0 21 9.8 21 22.79 0 12.43-8.32 22.71-21 22.71-13 0-21.11-10.56-21.11-22.71S111 464.71 124 464.71m.1 42.6c6.45 0 7.19-7.94 7.19-19.81 0-14.39-1.59-19.9-7.29-19.9-6.91 0-7.38 9.25-7.38 19.9.03 10.09.03 19.8 7.51 19.8zM197.65 508.89h-22v-2.24c3.08-.28 4.39-1.87 4.39-5.33v-22.6c0-2.61-.09-7.76-5.14-7.76-3.73 0-7.75 4.58-7.75 5.42v24.95c0 2.14.28 4.85 4.58 5.33v2.24h-22.47v-2.24c3.37-.66 5-1 5-5.61v-27.47c0-4.21-1.22-5-5-5.52v-2.24h17.84v6.73h.19a15.28 15.28 0 0 1 13.27-7.85c5.14 0 12.52 2.9 12.52 13.17v23.45c0 2.24 0 5.13 4.58 5.33v2.24zM227.73 469.94h-8.78v28.12c0 1.5-.09 5.33 3.65 5.33 2.71 0 4.29-2.9 5.32-4.86l2.34 1c-2 4-5.33 10.46-13.73 10.46-10.09 0-10.46-7.85-10.56-9.81v-30.24h-4.86v-2.53c5-4.2 9.16-8.31 15.51-17.38h2.34v15.79h8.78zM275.94 504.88c-2.61 3.08-6.07 5.33-10.28 5.33-6.54 0-7.29-3.93-7.85-6.54A21.1 21.1 0 0 1 243 510.2c-4.48 0-10.28-2.9-10.28-10 0-9.72 11.87-13.45 25.13-17.47v-6.82c0-4.77-1.31-8.22-8.22-8.22-3.36 0-5.51 1.86-5.51 3.36 0 2 2.8 2.71 2.8 6.36 0 1.68-1.4 5.23-6.26 5.23-1.12 0-6.17 0-6.17-6.36 0-5.89 5.89-11.58 17.47-11.58 10.37 0 18.68 4 18.68 12.8v24.39a2 2 0 0 0 2.06 2.33 1.2 1.2 0 0 0 .94-.38l.93-.94 1.4 2M257.72 486c-2.15.46-11.4 3.17-11.4 11.3 0 2.89 1.4 6.26 4.76 6.26 3.18 0 5.33-2.52 6.63-4zM327.41 508.89h-22v-2.24c3.08-.28 4.39-1.87 4.39-5.33v-22.6c0-2.61-.09-7.76-5.14-7.76-3.74 0-7.76 4.58-7.76 5.42v24.95c0 2.14.28 4.85 4.58 5.33v2.24H279v-2.24c3.36-.66 5-1 5-5.61v-27.47c0-4.21-1.21-5-5-5.52v-2.24h17.84v6.73h.16a15.28 15.28 0 0 1 13.27-7.85c5.14 0 12.52 2.9 12.52 13.17v23.45c0 2.24 0 5.13 4.58 5.33v2.24zM374.59 504.88c-2.62 3.08-6.07 5.33-10.28 5.33-6.54 0-7.29-3.93-7.85-6.54a21.1 21.1 0 0 1-14.85 6.54c-4.49 0-10.28-2.9-10.28-10 0-9.72 11.86-13.45 25.13-17.47v-6.82c0-4.77-1.31-8.22-8.22-8.22-3.36 0-5.51 1.86-5.51 3.36 0 2 2.8 2.71 2.8 6.36 0 1.68-1.4 5.23-6.26 5.23-1.12 0-6.17 0-6.17-6.36 0-5.89 5.89-11.58 17.47-11.58 10.37 0 18.69 4 18.69 12.8v24.39a2 2 0 0 0 2.06 2.33 1.2 1.2 0 0 0 .93-.38l.94-.94 1.4 2M356.37 486c-2.15.46-11.4 3.17-11.4 11.3 0 2.89 1.4 6.26 4.77 6.26 3.17 0 5.33-2.52 6.63-4zM465.86 508.89h-19.15l-19.34-29.24h-2.52V498c0 7.48 2.06 7.76 8.22 8.6v2.34h-31.58v-2.34c6.35-.75 8.22-1 8.22-8.6v-41.33c0-8-2.9-8.22-8.22-8.6v-2.34h30.08c6.54 0 26.34.74 26.34 16.44 0 11.49-9.62 14.39-14.67 16L462 504.78a4.29 4.29 0 0 0 3.83 1.78v2.34m-41-32.23c12.24-.1 17.1-2.15 17.1-14.29 0-9.44-3.83-13.46-11.3-13.46-5.14 0-5.33 1-5.79 3.93zM506.31 498.52c-5.7 8.69-11 11.68-18.5 11.68-9.44 0-19-6.92-19-22.89 0-13.83 8.5-22.61 19.24-22.61 16.26 0 17.47 16.26 17.75 21.3h-23.5c.28 7.94 2.34 17.47 11.21 17.47 5.51 0 8.78-4.11 10.56-6.25l2.24 1.3m-12-16c-.1-2.89-.1-7.76-.84-10.56-.56-2.06-1.78-4.39-5-4.39-3.46 0-6.63 2.06-6.63 14.95zM545.45 471.71a12.13 12.13 0 0 1 3.74 9.25c0 5.69-3.08 10.56-9.81 12.71-2.71.84-2.71.84-11.77.84-1.78 0-5.23 1.86-5.23 4.67 0 3.17 2.43 3.27 9.34 3.37l6.07.09c4.58.1 15.32 1 15.32 11.4 0 11.58-12.33 14.11-24 14.11s-18.5-3.27-18.5-8.5c0-3.74 3.36-6.54 8.6-7v-.18c-4.21-1.5-7.29-2.89-7.29-7.76 0-5.89 6.91-9.53 10.93-10.65v-.18c-6.91-2.53-11.4-7.57-11.4-14.3 0-7.47 6.35-14.85 19.15-14.85a26.49 26.49 0 0 1 10.28 2.06H553v5h-7.57m-23.36 42c-2.43 2-3.27 3.17-3.27 5.23 0 6 9.81 6.17 11.4 6.17 3.74 0 15.51 0 15.51-6.64 0-3.36-2.61-4.76-7.47-4.76H522.1m8.32-21.86c5.89 0 6.17-6.73 6.17-12.06 0-4.2 0-12.24-6.17-12.24-5.7 0-6.17 6.35-6.17 12.24 0 6.42.65 12.02 6.16 12.02zM578.52 508.89H556.2v-2.24c3.37-.85 5-1.13 5-5.61v-27.46c0-4.21-1.4-4.86-5-5.52v-2.24h17.94v35.5c0 2.89.74 5 4.39 5.33v2.24m-10.93-64.55a7.22 7.22 0 0 1 7.2 7.29 7.24 7.24 0 0 1-14.48 0 7.23 7.23 0 0 1 7.27-7.29zM604.12 464.71c12.24 0 21 9.8 21 22.79 0 12.43-8.32 22.71-21 22.71-13 0-21.11-10.56-21.11-22.71s8.13-22.79 21.11-22.79m.1 42.6c6.45 0 7.2-7.94 7.2-19.81 0-14.39-1.59-19.9-7.29-19.9-6.91 0-7.38 9.25-7.38 19.9-.01 10.09-.01 19.8 7.47 19.8zM677.74 508.89h-22v-2.24c3.09-.28 4.39-1.87 4.39-5.33v-22.6c0-2.61-.09-7.76-5.13-7.76-3.73 0-7.76 4.58-7.76 5.42v24.95c0 2.14.28 4.85 4.58 5.33v2.24h-22.47v-2.24c3.36-.66 5-1 5-5.61v-27.47c0-4.21-1.22-5-5-5.52v-2.24h17.84v6.73h.19a15.28 15.28 0 0 1 13.27-7.85c5.13 0 12.52 2.9 12.52 13.17v23.45c0 2.24 0 5.13 4.58 5.33v2.24zM724.92 504.88c-2.62 3.08-6.07 5.33-10.28 5.33-6.54 0-7.29-3.93-7.85-6.54a21.11 21.11 0 0 1-14.86 6.54c-4.49 0-10.28-2.9-10.28-10 0-9.72 11.86-13.45 25.13-17.47v-6.82c0-4.77-1.31-8.22-8.23-8.22-3.36 0-5.51 1.86-5.51 3.36 0 2 2.81 2.71 2.81 6.36 0 1.68-1.41 5.23-6.26 5.23-1.12 0-6.17 0-6.17-6.36 0-5.89 5.89-11.58 17.47-11.58 10.37 0 18.69 4 18.69 12.8v24.39a2 2 0 0 0 2.06 2.33 1.2 1.2 0 0 0 .94-.38l.94-.94 1.4 2M706.7 486c-2.15.46-11.4 3.17-11.4 11.3 0 2.89 1.41 6.26 4.77 6.26 3.18 0 5.33-2.52 6.64-4zM749.86 508.89h-22.33v-2.24c3.74 0 4.77-3.37 4.77-5.61V453.4c0-1-.18-5.42-4.77-5.42v-2.24h17.75V501c0 2.7.94 5.61 4.58 5.61v2.24zM831.13 508.89h-54v-2.34c5.24-.66 8-.94 8-6.64v-45.2c0-6.17-3.83-6.36-8-6.64v-2.34h32.61v2.34c-6.54.28-9.44.38-9.44 8.6v44.1c0 4.48 2.06 5.23 8.32 5.23 14.11 0 19.34-7.76 23.64-18.31H835zM861.5 508.89h-22.33v-2.24c3.37-.85 5-1.13 5-5.61v-27.46c0-4.21-1.4-4.86-5-5.52v-2.24h17.94v35.5c0 2.89.75 5 4.39 5.33v2.24m-10.93-64.55a7.22 7.22 0 0 1 7.2 7.29 7.24 7.24 0 0 1-14.48 0 7.23 7.23 0 0 1 7.28-7.29zM865.24 445.74h18.12v24.2a14.77 14.77 0 0 1 11.4-5.23c10.74 0 17.56 9.44 17.56 21.67 0 11.87-6.35 23.83-21.77 23.83-2.89 0-7.38-1.13-11.68-5.33l-7.38 5.23h-1.13V453.4c0-4.39-1.78-4.77-5.13-5.42v-2.24m18.12 54.09c0 2.61 1.22 7.38 6.36 7.38 5.61 0 8.88-4.77 8.88-19.44 0-5.51-.56-18-8.69-18-4.29 0-5.69 3.45-6.54 5.51zM943.15 508.89H918.3v-2.24c3-.57 5-.94 5-5.61v-27.46c0-4.68-2.24-5.14-5-5.52v-2.24H936v7.38h.19c2-2.89 6.17-8.5 12.24-8.5 6.36 0 7.76 5 7.76 7.29 0 2.43-1.31 6.26-6 6.26-5.42 0-5.33-5.52-8.32-5.52-1.4 0-5.51 2.06-5.51 8.88v17.66c0 5.69 1.12 7.1 6.82 7.38v2.24zM1002.66 504.88c-2.61 3.08-6.07 5.33-10.28 5.33-6.54 0-7.29-3.93-7.85-6.54a21.09 21.09 0 0 1-14.85 6.54c-4.49 0-10.28-2.9-10.28-10 0-9.72 11.86-13.45 25.13-17.47v-6.82c0-4.77-1.3-8.22-8.22-8.22-3.36 0-5.51 1.86-5.51 3.36 0 2 2.8 2.71 2.8 6.36 0 1.68-1.4 5.23-6.25 5.23-1.13 0-6.17 0-6.17-6.36 0-5.89 5.89-11.58 17.47-11.58 10.37 0 18.69 4 18.69 12.8v24.39a2 2 0 0 0 2.06 2.33 1.2 1.2 0 0 0 .94-.38l.94-.94 1.4 2M984.44 486c-2.15.46-11.4 3.17-11.4 11.3 0 2.89 1.41 6.26 4.77 6.26 3.17 0 5.33-2.52 6.64-4zM1031.34 508.89h-24.85v-2.24c3-.57 5-.94 5-5.61v-27.46c0-4.68-2.24-5.14-5-5.52v-2.24h17.66v7.38h.19c2-2.89 6.17-8.5 12.24-8.5 6.36 0 7.76 5 7.76 7.29 0 2.43-1.31 6.26-6 6.26-5.41 0-5.33-5.52-8.32-5.52-1.4 0-5.51 2.06-5.51 8.88v17.66c0 5.69 1.12 7.1 6.82 7.38v2.24zM1090.1 468.07c-2.06.28-3.65.47-5.42 5.14l-13.92 37.09c-4.67 12.43-6.63 17.75-15.42 17.75-6.07 0-8.6-4.29-8.6-7.29 0-1.31.57-6.08 6.17-6.08 4.2 0 5.23 3.09 5.23 4.77a12.28 12.28 0 0 1-.28 1.69 1.68 1.68 0 0 0 1.58 1.58c3.18 0 5.52-5.61 6.17-7.66l1.69-5-11.21-27.56c-2.06-5-4.86-10.84-5.42-12-1.12-2.15-1.58-2.15-3.93-2.53v-2.24h23.36v2.24c-2.42.19-5 .28-5 2.53 0 .94 1 3.36 1.87 5.41l6.73 17.29 6.35-17.94a12.46 12.46 0 0 0 1-4.21c0-3-2.81-3-5.14-3.09v-2.24h14.11v2.24zM234.42 426.26l8.78-44h5.58l-4.23 21.18 22.82-21.18h7.89l-19.53 17.9 14.27 26.1h-6.24l-12.11-22.32-8.81 8.06-2.84 14.26h-5.58zM272.78 426.26l6.36-31.9h4.67l-1.11 5.52a25.22 25.22 0 0 1 5.75-4.74 11.13 11.13 0 0 1 5.47-1.49 7.87 7.87 0 0 1 5.82 2.12 7.68 7.68 0 0 1 2.11 5.66 31 31 0 0 1-.79 5.57L297 426.26h-5.13l4.26-20.2a23.15 23.15 0 0 0 .64-4.36 3.38 3.38 0 0 0-1.06-2.58 4.31 4.31 0 0 0-3.06-1 10.13 10.13 0 0 0-7.18 3q-3.15 3-4.63 10.3l-2.93 14.83h-5.13zM306.19 414.15q0-9.33 5.22-15.46a14.11 14.11 0 0 1 11.29-5 11.45 11.45 0 0 1 8.82 3.61q3.35 3.59 3.35 9.73a24.83 24.83 0 0 1-2.11 10.22 16.26 16.26 0 0 1-6 7.25 14.83 14.83 0 0 1-8.19 2.52 13.14 13.14 0 0 1-6.43-1.59 10.73 10.73 0 0 1-4.42-4.5 14.32 14.32 0 0 1-1.53-6.73m5-.54q0 4.5 2.08 6.83a6.76 6.76 0 0 0 5.28 2.32 8.33 8.33 0 0 0 3.31-.71 9.63 9.63 0 0 0 3.06-2.14 14.42 14.42 0 0 0 2.41-3.29 22.15 22.15 0 0 0 2.49-9.68 9.84 9.84 0 0 0-2.09-6.71 6.7 6.7 0 0 0-5.26-2.39 8.49 8.49 0 0 0-4.47 1.22 12.21 12.21 0 0 0-3.65 3.56 16.23 16.23 0 0 0-2.39 5.45 23.46 23.46 0 0 0-.75 5.5zM343.55 426.26l-3.14-31.9h4.93l1.35 14.34.57 8q.07.9.2 3.6.84-3 1.46-4.65t1.95-4.65l7.19-16.68h5.64l1 16q.18 3.63.32 9.75 1.46-4 4.66-11.19l6.51-14.53h5.2l-14.83 31.9h-5.47L360 407.56c-.06-1.16-.12-3.44-.17-6.84q-1.27 3.23-2.84 7L349 426.26h-5.47zM379.68 426.26l8.75-44h5.13l-8.75 44h-5.12zM415.35 415.51l5 .45a16 16 0 0 1-5 7.48 13.41 13.41 0 0 1-9.32 3.54 12.18 12.18 0 0 1-6.2-1.64 10.55 10.55 0 0 1-4.29-4.76 16.49 16.49 0 0 1-1.47-7.12 23.64 23.64 0 0 1 2.3-10.14 17.05 17.05 0 0 1 6-7.3 14.25 14.25 0 0 1 7.93-2.39 11.22 11.22 0 0 1 8.68 3.54q3.25 3.54 3.25 9.66a30 30 0 0 1-.4 4.8h-22.44c-.06.62-.09 1.18-.09 1.68q0 4.46 2 6.81a6.06 6.06 0 0 0 4.81 2.35 9.13 9.13 0 0 0 5.26-1.8 11.66 11.66 0 0 0 4-5.19m-15.13-8.06h17.14v-1.19a9 9 0 0 0-2-6.23 6.47 6.47 0 0 0-5-2.17 9 9 0 0 0-6.08 2.39 14.44 14.44 0 0 0-4.1 7.2zM446 421.64q-4.45 5.36-9.3 5.36a9.11 9.11 0 0 1-7.21-3.35q-2.88-3.34-2.88-9.71a24.63 24.63 0 0 1 2.27-10.64 17.86 17.86 0 0 1 5.69-7.22 11.84 11.84 0 0 1 6.85-2.4q5.66 0 8.55 5.73l3.43-17.11h5.2l-8.78 44h-4.75l.92-4.62m-14.35-8.76a17.26 17.26 0 0 0 .64 5.24 6.83 6.83 0 0 0 2.17 3.19 5.55 5.55 0 0 0 3.67 1.28q3.55 0 6.44-3.83a20.17 20.17 0 0 0 3.87-12.57 8.59 8.59 0 0 0-1.91-5.92 6.16 6.16 0 0 0-4.8-2.13 6.88 6.88 0 0 0-3.42.87 10.17 10.17 0 0 0-3.06 3 18.86 18.86 0 0 0-2.56 5.29 18.61 18.61 0 0 0-1 5.64zM457.79 429.13l5.16.45a5.93 5.93 0 0 0 .43 2.81 3.28 3.28 0 0 0 1.55 1.45 8.48 8.48 0 0 0 3.62.67q4.69 0 6.74-2.54 1.34-1.71 2.48-7.43l.51-2.58q-4 4.31-8.55 4.31a9.78 9.78 0 0 1-7.73-3.57q-3-3.55-3-10.07a20.42 20.42 0 0 1 2.44-9.88 18.94 18.94 0 0 1 5.8-6.8 12.16 12.16 0 0 1 6.93-2.3q6 0 9.18 5.93l1-5.21h4.78L483 425.14a26.55 26.55 0 0 1-2.62 7.9 11.3 11.3 0 0 1-4.52 4.39 13.92 13.92 0 0 1-6.69 1.56 18 18 0 0 1-6.29-1 8 8 0 0 1-3.94-2.89 7.54 7.54 0 0 1-1.3-4.36 7.94 7.94 0 0 1 .18-1.62m6.45-17a15.14 15.14 0 0 0 .6 4.92 7.61 7.61 0 0 0 2.44 3.52 5.64 5.64 0 0 0 3.53 1.22 8.42 8.42 0 0 0 5.05-1.87 12.9 12.9 0 0 0 4.07-5.79 20.23 20.23 0 0 0 1.56-7.48 9.13 9.13 0 0 0-2.07-6.27 6.6 6.6 0 0 0-5.13-2.33 7.05 7.05 0 0 0-3.66 1.06 11.24 11.24 0 0 0-3.3 3.24 15.88 15.88 0 0 0-2.31 5.2 20.08 20.08 0 0 0-.78 4.59zM512.9 415.51l5 .45a16 16 0 0 1-5 7.48 13.41 13.41 0 0 1-9.32 3.54 12.18 12.18 0 0 1-6.2-1.64 10.55 10.55 0 0 1-4.29-4.76 16.49 16.49 0 0 1-1.47-7.12 23.64 23.64 0 0 1 2.3-10.14 17.05 17.05 0 0 1 6-7.3 14.25 14.25 0 0 1 7.93-2.39 11.22 11.22 0 0 1 8.68 3.54q3.25 3.54 3.25 9.66a30 30 0 0 1-.4 4.8h-22.45c-.06.62-.09 1.18-.09 1.68q0 4.46 2 6.81a6.06 6.06 0 0 0 4.81 2.35 9.13 9.13 0 0 0 5.26-1.8 11.66 11.66 0 0 0 4-5.19m-15.13-8.06h17.14v-1.19a9 9 0 0 0-2-6.23 6.47 6.47 0 0 0-5-2.17 9 9 0 0 0-6.08 2.39 14.44 14.44 0 0 0-4.1 7.2zM533.93 426.26l23.66-44h6.86l6.83 44h-5.54l-1.94-12.63h-17l-6.65 12.63h-6.21m15.33-17.2h13.82l-1.62-11q-.93-6.54-1.16-10.91a80.14 80.14 0 0 1-4.19 8.91l-6.85 13zM588.27 421.85l-.86 4.44a13.48 13.48 0 0 1-3.59.51 7.31 7.31 0 0 1-4.94-1.59 4.12 4.12 0 0 1-1.38-3.27 34 34 0 0 1 .74-4.84l3.67-18.52h-4.12l1-4.21h4.12l1.58-7.82 5.95-3.74-2.33 11.56h5.11l-1.08 4.21h-5l-3.49 17.64a34.25 34.25 0 0 0-.66 4 1.94 1.94 0 0 0 .53 1.47 2.43 2.43 0 0 0 1.73.51 11 11 0 0 0 3.05-.38zM621.88 426.26l3.39-17-12.94-27h6.08l6.14 12.74q2 4.17 3.93 8.92a62.69 62.69 0 0 1 5.77-8.74l9.89-12.91H651l-20.22 27.46-3.3 16.53h-5.58zM644.25 414.15q0-9.33 5.21-15.46a14.12 14.12 0 0 1 11.29-5 11.46 11.46 0 0 1 8.82 3.61q3.35 3.59 3.35 9.73a24.83 24.83 0 0 1-2.11 10.22 16.26 16.26 0 0 1-6 7.25 14.83 14.83 0 0 1-8.19 2.52 13.15 13.15 0 0 1-6.43-1.59 10.77 10.77 0 0 1-4.42-4.5 14.35 14.35 0 0 1-1.52-6.73m5-.54q0 4.5 2.08 6.83a6.76 6.76 0 0 0 5.28 2.32 8.34 8.34 0 0 0 3.31-.71 9.59 9.59 0 0 0 3.06-2.14 14.17 14.17 0 0 0 2.41-3.29 22.2 22.2 0 0 0 2.5-9.68 9.84 9.84 0 0 0-2.09-6.71 6.71 6.71 0 0 0-5.27-2.39 8.47 8.47 0 0 0-4.47 1.22 12.18 12.18 0 0 0-3.65 3.56 16.23 16.23 0 0 0-2.39 5.45 23.47 23.47 0 0 0-.77 5.54zM696.58 420.49Q691.12 427 685.4 427a7.76 7.76 0 0 1-5.67-2.12 7 7 0 0 1-2.16-5.17 38.42 38.42 0 0 1 1.06-6.91l4-18.41h5.22L683.4 415a19.84 19.84 0 0 0-.57 4 3.24 3.24 0 0 0 1.06 2.58 4.68 4.68 0 0 0 3.12.92 9.23 9.23 0 0 0 4.32-1.1 11.5 11.5 0 0 0 3.63-3 15.6 15.6 0 0 0 2.49-4.44 40.12 40.12 0 0 0 1.48-5.75l2.86-13.86h5.13l-6.73 31.9h-4.76l1.14-5.77zM708.39 426.26l6.36-31.9h4.64l-1.33 6.52a22.77 22.77 0 0 1 4.64-5.47 7.36 7.36 0 0 1 4.58-1.77 8.77 8.77 0 0 1 3.8 1.16l-2.12 5a4.88 4.88 0 0 0-2.94-1q-2.71 0-5.61 3.19t-4.58 11.45l-2.53 12.78h-4.91zM744.81 426.26l8.78-44h27.23l-1 5h-21.65l-2.79 14h22l-1 5h-22l-4 20zM779.72 426.26l6.37-31.9h5.12l-6.37 31.9h-5.12m7.55-37.81l1.23-6.18h5.12l-1.23 6.18h-5.12zM792.79 426.26l6.37-31.9h4.67l-1.11 5.52a25.1 25.1 0 0 1 5.75-4.74 11.11 11.11 0 0 1 5.46-1.49 7.85 7.85 0 0 1 5.82 2.12 7.67 7.67 0 0 1 2.12 5.66 31.19 31.19 0 0 1-.78 5.57L817 426.26h-5.13l4.27-20.2a23.35 23.35 0 0 0 .63-4.36 3.38 3.38 0 0 0-1.06-2.58 4.31 4.31 0 0 0-3.06-1 10.13 10.13 0 0 0-7.18 3q-3.15 3-4.63 10.3l-2.93 14.83h-5.13zM825 429.13l5.16.45a5.89 5.89 0 0 0 .43 2.81 3.24 3.24 0 0 0 1.54 1.45 8.5 8.5 0 0 0 3.63.67q4.68 0 6.74-2.54 1.34-1.71 2.49-7.43l.51-2.58q-4 4.31-8.55 4.31a9.76 9.76 0 0 1-7.68-3.56q-3.1-3.55-3.1-10.07a20.42 20.42 0 0 1 2.44-9.88 19 19 0 0 1 5.81-6.8 12.15 12.15 0 0 1 6.93-2.3q6 0 9.18 5.93l1-5.21h4.78l-6.17 30.78a26.38 26.38 0 0 1-2.63 7.9 11.29 11.29 0 0 1-4.52 4.39 13.94 13.94 0 0 1-6.69 1.56 18 18 0 0 1-6.29-1 8 8 0 0 1-3.94-2.89 7.52 7.52 0 0 1-1.3-4.36 8.21 8.21 0 0 1 .18-1.62m6.45-17a15.3 15.3 0 0 0 .6 4.92 7.65 7.65 0 0 0 2.44 3.52 5.65 5.65 0 0 0 3.53 1.22 8.41 8.41 0 0 0 5.06-1.87 12.94 12.94 0 0 0 4.07-5.79 20.29 20.29 0 0 0 1.56-7.48 9.1 9.1 0 0 0-2.07-6.27 6.59 6.59 0 0 0-5.12-2.33 7 7 0 0 0-3.66 1.06 11.25 11.25 0 0 0-3.3 3.24 15.93 15.93 0 0 0-2.31 5.2 20.25 20.25 0 0 0-.78 4.59zM880.16 415.51l5 .45a16 16 0 0 1-5 7.48 13.4 13.4 0 0 1-9.32 3.54 12.18 12.18 0 0 1-6.2-1.64 10.55 10.55 0 0 1-4.29-4.76 16.54 16.54 0 0 1-1.47-7.12 23.64 23.64 0 0 1 2.3-10.14 17.05 17.05 0 0 1 6-7.3 14.25 14.25 0 0 1 7.93-2.39 11.23 11.23 0 0 1 8.68 3.54q3.24 3.54 3.25 9.66a30.32 30.32 0 0 1-.4 4.8h-22.45c-.06.62-.09 1.18-.09 1.68q0 4.46 2 6.81a6.05 6.05 0 0 0 4.82 2.35 9.12 9.12 0 0 0 5.25-1.8 11.65 11.65 0 0 0 4-5.19M865 407.45h17.15v-1.19a9 9 0 0 0-2-6.23 6.47 6.47 0 0 0-5-2.17 9 9 0 0 0-6.08 2.39 14.44 14.44 0 0 0-4.1 7.2zM890.34 426.26l6.36-31.9h4.64l-1.34 6.53a22.77 22.77 0 0 1 4.63-5.47 7.37 7.37 0 0 1 4.59-1.77 8.77 8.77 0 0 1 3.8 1.16l-2.12 5a4.88 4.88 0 0 0-2.94-1q-2.72 0-5.61 3.19t-4.58 11.45l-2.53 12.78h-4.92zM937.58 426.26l7.79-39h-14l1-5h33.24l-1 5H951l-7.79 39zM961.16 426.26l6.37-31.9h5.12l-6.36 31.9h-5.13m7.55-37.81l1.23-6.18h5.13l-1.23 6.18zM971.82 438.45l8.78-44.08h4.76l-.88 4.45a19.41 19.41 0 0 1 4.73-4 9.19 9.19 0 0 1 4.42-1.13 9 9 0 0 1 7.16 3.31q2.84 3.33 2.84 9.51a25.33 25.33 0 0 1-1.57 9.08 20.52 20.52 0 0 1-3.85 6.59 16.19 16.19 0 0 1-4.61 3.66 10.63 10.63 0 0 1-4.79 1.17q-5.45 0-8.44-5.82l-3.42 17.29h-5.12m10.12-25.2a16.55 16.55 0 0 0 .49 4.92 6.63 6.63 0 0 0 2.36 3.14 6.3 6.3 0 0 0 3.8 1.19q4.49 0 7.25-5.26a22.85 22.85 0 0 0 2.77-10.74 9.43 9.43 0 0 0-1.86-6.25 5.79 5.79 0 0 0-4.62-2.21 6.68 6.68 0 0 0-3.68 1.1 11.22 11.22 0 0 0-3.15 3.28 19.88 19.88 0 0 0-2.4 5.34 19.45 19.45 0 0 0-1 5.5zM1007.2 415.42l5.2-.36a10.27 10.27 0 0 0 .69 4 5.62 5.62 0 0 0 2.54 2.69 8.68 8.68 0 0 0 4.32 1 7.91 7.91 0 0 0 5.16-1.43 4.28 4.28 0 0 0 1.72-3.38 4.14 4.14 0 0 0-1-2.66q-1.08-1.26-5.21-3.1a47.75 47.75 0 0 1-5.29-2.6 8.69 8.69 0 0 1-2.89-2.91 7.47 7.47 0 0 1-1-3.84 8.61 8.61 0 0 1 2.87-6.5q2.86-2.71 8-2.71 5.74 0 8.74 2.79a9.89 9.89 0 0 1 3.11 7.34l-5 .36a6.23 6.23 0 0 0-2-4.58 7.44 7.44 0 0 0-5.22-1.69 6.24 6.24 0 0 0-4.22 1.3 3.71 3.71 0 0 0-1.5 2.8 3.44 3.44 0 0 0 1.3 2.65A21 21 0 0 0 1022 407q6 2.7 7.54 4.26a8.31 8.31 0 0 1 2.45 6.05 8.78 8.78 0 0 1-1.39 4.64 9.61 9.61 0 0 1-4.23 3.64 15.38 15.38 0 0 1-6.72 1.37 14.72 14.72 0 0 1-9-2.72q-3.65-2.7-3.45-8.82z"/><path d="M210.71 508.31c-3.77-2.32-4.45-5.73-4.45-22.41v-16h-2.34c-3.42 0-2.89-2 1.66-6.25a84.07 84.07 0 0 0 7.68-8.58c2-2.66 4-4.83 4.43-4.83s.74 3.58.74 8v8h4.21c3.59 0 4.21.28 4.21 1.87s-.62 1.87-4.21 1.87h-4.21v15c0 8.58.42 15.82 1 16.86 1.37 2.56 5.08 2.28 7.32-.56 1-1.3 2.11-2 2.4-1.51s-1.06 2.66-3 4.86c-3.22 3.63-4 4-8.65 4.35-2.81.19-5.84-.1-6.74-.66zM523.32 152.3l-2 1.86c-1 .86-51.78 44.16-104.79 89.31-5.74 4.89-9.38 8-15.34 13-1.7 1.45-1.44 1.26-3.15 2.72-64.56 55-119.59 101.88-120.84 102.93l-1.29 1.15-1 .72h33.83c6.23 0 11.1.14 18.49.14h52.17l84-70.1c1.66-1.38 1.52-1.22 3.15-2.58 24-20 45.71-38.06 61.64-51.18s26-21.3 26.23-21.22 8.95 8.37 20.79 19.64c4.2 4 9.53 9.2 14.77 14.19 15.53 14.91 36.72 35.31 61.07 58.63l55 52.61h39.85l-.57-.57h.43l-6.88-6.45c-3.61-3.54-51.38-49-103.93-98.91-2.83-2.69-4.53-4.24-7.31-6.88L607 231.86c-18-17.1-37.57-35.71-50.6-48l-33.08-31.56zm3 128.87c-.79.68-23.25 19.08-50 40.85s-49.59 40.33-50.6 41.28c-1.8 1.7-.79 1.67 39.85 1.58 22.91-.05 45.28-.24 49.74-.57l8-.72 15.63-14.77 15.63-14.77 4.44 3.58c2.4 2 10.66 8.74 18.35 15.05l13.9 11.47h18.35c10 0 18-.2 17.78-.43s-22.76-19.22-50-42.14c-42.75-35.94-49.8-41.49-51-40.42zm-52 113.25a11 11 0 0 0-3.15.43c-6.55 2-11.24 9.69-11.18 18.21 0 5.75 1.33 8.52 5.16 11 3.66 2.41 5.85 2.27 10-.57 1.92-1.31 3.44-1.85 3.44-1.29 0 2.88-2.27 9.43-3.73 10.75-3.42 3.09-12.18 1.64-12.18-2 0-.75-.93-1.29-2.29-1.29s-2.44.37-2.44.86c0 2 2.29 5.55 4.16 6.45 3.14 1.52 10.72 1.28 13.62-.43a14 14 0 0 0 4.16-4.16c1.32-2.24 8-32.44 8-36.12 0-.69-.83-1.29-1.86-1.29-1.37 0-1.86.58-1.86 2.29 0 2.76-1.4 3.19-2.72.72-1.19-2.22-4-3.6-7.17-3.58zm.14 3.44a7.19 7.19 0 0 1 5 2.29c4.08 4.34 2.12 15.84-3.44 20.21-5 3.9-10.67 1.41-11.9-5.16-.9-4.82 1.59-13 4.73-15.48a8.66 8.66 0 0 1 5.59-1.86zM1102.92 438.89a13.09 13.09 0 0 1 6.28 1.65 11.73 11.73 0 0 1 4.77 4.72 12.83 12.83 0 0 1 0 12.75 11.86 11.86 0 0 1-4.72 4.73 12.83 12.83 0 0 1-12.71 0 11.92 11.92 0 0 1-4.73-4.73 12.78 12.78 0 0 1 0-12.75 11.78 11.78 0 0 1 4.78-4.72 13.09 13.09 0 0 1 6.33-1.65zm0 2.12a10.88 10.88 0 0 0-5.24 1.38 9.89 9.89 0 0 0-4 3.94 10.61 10.61 0 0 0 0 10.63 10 10 0 0 0 4 3.94 10.64 10.64 0 0 0 10.59 0 10 10 0 0 0 3.94-3.94 10.67 10.67 0 0 0 0-10.63 9.83 9.83 0 0 0-4-3.94 10.9 10.9 0 0 0-5.29-1.39zm-5.6 17.72V445h4.68a11.55 11.55 0 0 1 3.5.38 3.4 3.4 0 0 1 1.73 1.33 3.53 3.53 0 0 1 .64 2 3.66 3.66 0 0 1-1.07 2.62 4.25 4.25 0 0 1-2.85 1.25 3.75 3.75 0 0 1 1.17.73 15.74 15.74 0 0 1 2 2.72l1.68 2.69h-2.71l-1.22-2.17a11.09 11.09 0 0 0-2.32-3.2 2.86 2.86 0 0 0-1.78-.47h-1.3v5.84zm2.22-7.74h2.69a4.34 4.34 0 0 0 2.63-.58 2 2 0 0 0 .36-2.62 2 2 0 0 0-.94-.72 7 7 0 0 0-2.23-.24h-2.52z"/></svg>
